<svg width="500" height="500" viewBox="0 0 500 500" fill="none" xmlns="http://www.w3.org/2000/svg">
<rect width="500" height="500" rx="36" fill="white"/>
<path d="M381.864 308.127C383.244 307.412 384.857 308.462 384.712 310.01C384.028 317.301 381.976 334.298 377 345.001C373.499 352.531 366.711 360.904 361.091 367.123C355.463 373.351 347.327 376.501 338.933 376.501H254.1C253.053 376.501 252.711 375.096 253.64 374.614L381.864 308.127ZM186.885 139.279C219.432 122.54 257.298 119.416 292.148 130.594C324.253 140.892 351.377 162.55 368.538 191.343L368.561 191.33C369.591 193.055 370.586 194.804 371.542 196.578L373.431 200.211C381.531 216.374 386.571 234.403 387.743 253.589C387.831 255.037 387.894 256.481 387.937 257.92L167.419 372.568C151.178 360.425 137.656 344.763 128.033 326.63L126.98 324.608C125.951 322.587 124.97 320.537 124.038 318.458L124.071 318.442C110.184 287.46 108.171 252.346 118.594 219.852C129.772 185.001 154.337 156.018 186.885 139.279ZM271.462 195.088C253.716 189.396 234.434 190.988 217.861 199.511C201.288 208.035 188.78 222.793 183.088 240.538C178.185 255.823 178.686 272.245 184.364 287.096L308.243 222.69C299.47 209.692 286.546 199.927 271.462 195.088Z" fill="#4D00FF"/>
</svg>
