<svg width="500" height="500" viewBox="0 0 500 500" fill="none" xmlns="http://www.w3.org/2000/svg">
<rect width="500" height="500" rx="36" fill="#4D00FF"/>
<path d="M381.864 308.126C383.244 307.411 384.857 308.462 384.712 310.009C384.028 317.3 381.975 334.296 376.999 345C373.498 352.53 366.711 360.904 361.091 367.123C355.463 373.351 347.327 376.5 338.933 376.5H254.1C253.053 376.5 252.71 375.095 253.639 374.613L381.864 308.126ZM186.885 139.279C219.432 122.54 257.297 119.416 292.148 130.594C324.253 140.892 351.377 162.55 368.538 191.343L368.562 191.329C369.592 193.054 370.586 194.804 371.542 196.578L373.44 200.23C381.535 216.387 386.572 234.41 387.743 253.588C387.831 255.036 387.894 256.48 387.937 257.919L167.42 372.568C151.185 360.43 137.666 344.776 128.044 326.652L126.982 324.61C125.952 322.588 124.97 320.537 124.038 318.457L124.071 318.441C110.184 287.459 108.171 252.345 118.594 219.851C129.772 185 154.337 156.018 186.885 139.279ZM271.461 195.088C253.715 189.396 234.434 190.987 217.861 199.51C201.288 208.033 188.78 222.792 183.088 240.537C178.185 255.822 178.686 272.244 184.364 287.095L308.243 222.691C299.47 209.692 286.546 199.927 271.461 195.088Z" fill="white"/>
</svg>
